<svg xmlns="http://www.w3.org/2000/svg" xmlns:xlink="http://www.w3.org/1999/xlink" width="200" zoomAndPan="magnify" viewBox="0 0 150 149.999998" height="200" preserveAspectRatio="xMidYMid meet" version="1.0"><defs><clipPath id="e4b4a02c9c"><path d="M 22.5 23 L 127.5 23 L 127.5 127.5 L 22.5 127.5 Z M 22.5 23 " clip-rule="nonzero"/></clipPath></defs><g clip-path="url(#e4b4a02c9c)"><path fill="#000000" d="M 78.085938 31.148438 C 77.121094 30.636719 76.09375 30.378906 75 30.378906 C 73.90625 30.378906 72.878906 30.636719 71.914062 31.148438 L 32.539062 52.148438 C 32.015625 52.429688 31.539062 52.773438 31.105469 53.183594 C 30.675781 53.59375 30.304688 54.050781 30 54.5625 C 29.695312 55.070312 29.460938 55.613281 29.300781 56.1875 C 29.144531 56.757812 29.0625 57.34375 29.0625 57.9375 L 29.0625 63.300781 L 66.796875 85.941406 L 75 81.019531 L 83.203125 85.941406 L 120.9375 63.300781 L 120.9375 57.9375 C 120.9375 57.34375 120.855469 56.757812 120.699219 56.1875 C 120.539062 55.613281 120.304688 55.070312 120 54.5625 C 119.695312 54.050781 119.324219 53.59375 118.894531 53.183594 C 118.460938 52.773438 117.984375 52.429688 117.460938 52.148438 Z M 120.9375 70.949219 L 89.582031 89.765625 L 120.9375 108.582031 Z M 120.707031 116.101562 L 75 88.664062 L 29.292969 116.09375 C 29.480469 116.789062 29.777344 117.4375 30.179688 118.035156 C 30.578125 118.632812 31.066406 119.148438 31.640625 119.585938 C 32.210938 120.027344 32.839844 120.359375 33.519531 120.589844 C 34.203125 120.820312 34.90625 120.9375 35.625 120.9375 L 114.375 120.9375 C 115.09375 120.9375 115.796875 120.820312 116.480469 120.589844 C 117.160156 120.359375 117.789062 120.027344 118.359375 119.585938 C 118.933594 119.148438 119.421875 118.632812 119.820312 118.035156 C 120.222656 117.4375 120.519531 116.789062 120.707031 116.09375 Z M 29.0625 108.574219 L 60.417969 89.757812 L 29.0625 70.949219 L 29.0625 108.582031 Z M 68.824219 25.355469 C 69.773438 24.847656 70.773438 24.464844 71.816406 24.203125 C 72.863281 23.941406 73.921875 23.8125 75 23.8125 C 76.078125 23.8125 77.136719 23.941406 78.183594 24.203125 C 79.226562 24.464844 80.226562 24.847656 81.175781 25.355469 L 120.550781 46.355469 C 121.601562 46.914062 122.554688 47.605469 123.417969 48.421875 C 124.28125 49.242188 125.015625 50.164062 125.628906 51.183594 C 126.242188 52.203125 126.707031 53.285156 127.023438 54.433594 C 127.339844 55.578125 127.5 56.746094 127.5 57.9375 L 127.5 114.375 C 127.5 115.238281 127.414062 116.089844 127.246094 116.9375 C 127.078125 117.78125 126.832031 118.601562 126.5 119.398438 C 126.171875 120.195312 125.765625 120.949219 125.289062 121.667969 C 124.808594 122.382812 124.265625 123.046875 123.65625 123.65625 C 123.046875 124.265625 122.382812 124.808594 121.667969 125.289062 C 120.949219 125.765625 120.195312 126.171875 119.398438 126.5 C 118.601562 126.832031 117.78125 127.078125 116.9375 127.246094 C 116.089844 127.414062 115.238281 127.5 114.375 127.5 L 35.625 127.5 C 34.761719 127.5 33.910156 127.414062 33.0625 127.246094 C 32.21875 127.078125 31.398438 126.832031 30.601562 126.5 C 29.804688 126.171875 29.050781 125.765625 28.332031 125.289062 C 27.617188 124.808594 26.953125 124.265625 26.34375 123.65625 C 25.734375 123.046875 25.191406 122.382812 24.710938 121.667969 C 24.234375 120.949219 23.828125 120.195312 23.5 119.398438 C 23.167969 118.601562 22.921875 117.78125 22.753906 116.9375 C 22.585938 116.089844 22.5 115.238281 22.5 114.375 L 22.5 57.9375 C 22.5 56.746094 22.660156 55.578125 22.976562 54.433594 C 23.292969 53.285156 23.757812 52.203125 24.371094 51.183594 C 24.984375 50.164062 25.71875 49.242188 26.582031 48.421875 C 27.445312 47.605469 28.398438 46.914062 29.449219 46.355469 Z M 68.824219 25.355469 " fill-opacity="1" fill-rule="nonzero"/></g></svg>