<svg xmlns="http://www.w3.org/2000/svg" xmlns:xlink="http://www.w3.org/1999/xlink" width="200" zoomAndPan="magnify" viewBox="0 0 150 149.999998" height="200" preserveAspectRatio="xMidYMid meet" version="1.0"><defs><clipPath id="b0f22cfc46"><path d="M 22.5 22.5 L 127.5 22.5 L 127.5 127.5 L 22.5 127.5 Z M 22.5 22.5 " clip-rule="nonzero"/></clipPath></defs><g clip-path="url(#b0f22cfc46)"><path fill="#000000" d="M 114.375 22.5 L 35.625 22.5 C 34.761719 22.5 33.910156 22.585938 33.0625 22.753906 C 32.21875 22.921875 31.398438 23.167969 30.601562 23.5 C 29.804688 23.828125 29.050781 24.234375 28.332031 24.710938 C 27.617188 25.191406 26.953125 25.734375 26.34375 26.34375 C 25.734375 26.953125 25.191406 27.617188 24.710938 28.332031 C 24.234375 29.050781 23.828125 29.804688 23.5 30.601562 C 23.167969 31.398438 22.921875 32.21875 22.753906 33.0625 C 22.585938 33.910156 22.5 34.761719 22.5 35.625 L 22.5 114.375 C 22.5 115.238281 22.585938 116.089844 22.753906 116.9375 C 22.921875 117.78125 23.167969 118.601562 23.5 119.398438 C 23.828125 120.195312 24.234375 120.949219 24.710938 121.667969 C 25.191406 122.382812 25.734375 123.046875 26.34375 123.65625 C 26.953125 124.265625 27.617188 124.808594 28.332031 125.289062 C 29.050781 125.765625 29.804688 126.171875 30.601562 126.5 C 31.398438 126.832031 32.21875 127.078125 33.0625 127.246094 C 33.910156 127.414062 34.761719 127.5 35.625 127.5 L 114.375 127.5 C 115.238281 127.5 116.089844 127.414062 116.9375 127.246094 C 117.78125 127.078125 118.601562 126.832031 119.398438 126.5 C 120.195312 126.171875 120.949219 125.765625 121.667969 125.289062 C 122.382812 124.808594 123.046875 124.265625 123.65625 123.65625 C 124.265625 123.046875 124.808594 122.382812 125.289062 121.667969 C 125.765625 120.949219 126.171875 120.195312 126.5 119.398438 C 126.832031 118.601562 127.078125 117.78125 127.246094 116.9375 C 127.414062 116.089844 127.5 115.238281 127.5 114.375 L 127.5 35.625 C 127.5 34.761719 127.414062 33.910156 127.246094 33.0625 C 127.078125 32.21875 126.832031 31.398438 126.5 30.601562 C 126.171875 29.804688 125.765625 29.050781 125.289062 28.332031 C 124.808594 27.617188 124.265625 26.953125 123.65625 26.34375 C 123.046875 25.734375 122.382812 25.191406 121.667969 24.710938 C 120.949219 24.234375 120.195312 23.828125 119.398438 23.5 C 118.601562 23.167969 117.78125 22.921875 116.9375 22.753906 C 116.089844 22.585938 115.238281 22.5 114.375 22.5 M 29.0625 47.8125 C 29.0625 44.707031 32.003906 42.1875 35.625 42.1875 L 114.375 42.1875 C 117.996094 42.1875 120.9375 44.707031 120.9375 47.8125 L 120.9375 115.3125 C 120.9375 118.417969 117.996094 120.9375 114.375 120.9375 L 35.625 120.9375 C 32.003906 120.9375 29.0625 118.417969 29.0625 115.3125 Z M 29.0625 47.8125 " fill-opacity="1" fill-rule="nonzero"/></g><path fill="#000000" d="M 65.15625 68.4375 C 65.585938 68.4375 66.015625 68.394531 66.4375 68.3125 C 66.859375 68.226562 67.269531 68.101562 67.667969 67.9375 C 68.066406 67.773438 68.445312 67.570312 68.800781 67.332031 C 69.160156 67.09375 69.492188 66.820312 69.796875 66.515625 C 70.101562 66.210938 70.375 65.878906 70.613281 65.519531 C 70.851562 65.164062 71.054688 64.785156 71.21875 64.386719 C 71.382812 63.988281 71.507812 63.578125 71.59375 63.15625 C 71.675781 62.734375 71.71875 62.304688 71.71875 61.875 C 71.71875 61.445312 71.675781 61.015625 71.59375 60.59375 C 71.507812 60.171875 71.382812 59.761719 71.21875 59.363281 C 71.054688 58.964844 70.851562 58.585938 70.613281 58.230469 C 70.375 57.871094 70.101562 57.539062 69.796875 57.234375 C 69.492188 56.929688 69.160156 56.65625 68.800781 56.417969 C 68.445312 56.179688 68.066406 55.976562 67.667969 55.8125 C 67.269531 55.648438 66.859375 55.523438 66.4375 55.4375 C 66.015625 55.355469 65.585938 55.3125 65.15625 55.3125 C 64.726562 55.3125 64.296875 55.355469 63.875 55.4375 C 63.453125 55.523438 63.042969 55.648438 62.644531 55.8125 C 62.246094 55.976562 61.867188 56.179688 61.511719 56.417969 C 61.152344 56.65625 60.820312 56.929688 60.515625 57.234375 C 60.210938 57.539062 59.9375 57.871094 59.699219 58.230469 C 59.460938 58.585938 59.257812 58.964844 59.09375 59.363281 C 58.929688 59.761719 58.804688 60.171875 58.71875 60.59375 C 58.636719 61.015625 58.59375 61.445312 58.59375 61.875 C 58.59375 62.304688 58.636719 62.734375 58.71875 63.15625 C 58.804688 63.578125 58.929688 63.988281 59.09375 64.386719 C 59.257812 64.785156 59.460938 65.164062 59.699219 65.519531 C 59.9375 65.878906 60.210938 66.210938 60.515625 66.515625 C 60.820312 66.820312 61.152344 67.09375 61.511719 67.332031 C 61.867188 67.570312 62.246094 67.773438 62.644531 67.9375 C 63.042969 68.101562 63.453125 68.226562 63.875 68.3125 C 64.296875 68.394531 64.726562 68.4375 65.15625 68.4375 M 84.84375 68.4375 C 85.273438 68.4375 85.703125 68.394531 86.125 68.3125 C 86.546875 68.226562 86.957031 68.101562 87.355469 67.9375 C 87.753906 67.773438 88.132812 67.570312 88.488281 67.332031 C 88.847656 67.09375 89.179688 66.820312 89.484375 66.515625 C 89.789062 66.210938 90.0625 65.878906 90.300781 65.519531 C 90.539062 65.164062 90.742188 64.785156 90.90625 64.386719 C 91.070312 63.988281 91.195312 63.578125 91.28125 63.15625 C 91.363281 62.734375 91.40625 62.304688 91.40625 61.875 C 91.40625 61.445312 91.363281 61.015625 91.28125 60.59375 C 91.195312 60.171875 91.070312 59.761719 90.90625 59.363281 C 90.742188 58.964844 90.539062 58.585938 90.300781 58.230469 C 90.0625 57.871094 89.789062 57.539062 89.484375 57.234375 C 89.179688 56.929688 88.847656 56.65625 88.488281 56.417969 C 88.132812 56.179688 87.753906 55.976562 87.355469 55.8125 C 86.957031 55.648438 86.546875 55.523438 86.125 55.4375 C 85.703125 55.355469 85.273438 55.3125 84.84375 55.3125 C 84.414062 55.3125 83.984375 55.355469 83.5625 55.4375 C 83.140625 55.523438 82.730469 55.648438 82.332031 55.8125 C 81.933594 55.976562 81.554688 56.179688 81.199219 56.417969 C 80.839844 56.65625 80.507812 56.929688 80.203125 57.234375 C 79.898438 57.539062 79.625 57.871094 79.386719 58.230469 C 79.148438 58.585938 78.945312 58.964844 78.78125 59.363281 C 78.617188 59.761719 78.492188 60.171875 78.40625 60.59375 C 78.324219 61.015625 78.28125 61.445312 78.28125 61.875 C 78.28125 62.304688 78.324219 62.734375 78.40625 63.15625 C 78.492188 63.578125 78.617188 63.988281 78.78125 64.386719 C 78.945312 64.785156 79.148438 65.164062 79.386719 65.519531 C 79.625 65.878906 79.898438 66.210938 80.203125 66.515625 C 80.507812 66.820312 80.839844 67.09375 81.199219 67.332031 C 81.554688 67.570312 81.933594 67.773438 82.332031 67.9375 C 82.730469 68.101562 83.140625 68.226562 83.5625 68.3125 C 83.984375 68.394531 84.414062 68.4375 84.84375 68.4375 M 104.53125 68.4375 C 104.960938 68.4375 105.390625 68.394531 105.8125 68.3125 C 106.234375 68.226562 106.644531 68.101562 107.042969 67.9375 C 107.441406 67.773438 107.820312 67.570312 108.175781 67.332031 C 108.535156 67.09375 108.867188 66.820312 109.171875 66.515625 C 109.476562 66.210938 109.75 65.878906 109.988281 65.519531 C 110.226562 65.164062 110.429688 64.785156 110.59375 64.386719 C 110.757812 63.988281 110.882812 63.578125 110.96875 63.15625 C 111.050781 62.734375 111.09375 62.304688 111.09375 61.875 C 111.09375 61.445312 111.050781 61.015625 110.96875 60.59375 C 110.882812 60.171875 110.757812 59.761719 110.59375 59.363281 C 110.429688 58.964844 110.226562 58.585938 109.988281 58.230469 C 109.75 57.871094 109.476562 57.539062 109.171875 57.234375 C 108.867188 56.929688 108.535156 56.65625 108.175781 56.417969 C 107.820312 56.179688 107.441406 55.976562 107.042969 55.8125 C 106.644531 55.648438 106.234375 55.523438 105.8125 55.4375 C 105.390625 55.355469 104.960938 55.3125 104.53125 55.3125 C 104.101562 55.3125 103.671875 55.355469 103.25 55.4375 C 102.828125 55.523438 102.417969 55.648438 102.019531 55.8125 C 101.621094 55.976562 101.242188 56.179688 100.886719 56.417969 C 100.527344 56.65625 100.195312 56.929688 99.890625 57.234375 C 99.585938 57.539062 99.3125 57.871094 99.074219 58.230469 C 98.835938 58.585938 98.632812 58.964844 98.46875 59.363281 C 98.304688 59.761719 98.179688 60.171875 98.09375 60.59375 C 98.011719 61.015625 97.96875 61.445312 97.96875 61.875 C 97.96875 62.304688 98.011719 62.734375 98.09375 63.15625 C 98.179688 63.578125 98.304688 63.988281 98.46875 64.386719 C 98.632812 64.785156 98.835938 65.164062 99.074219 65.519531 C 99.3125 65.878906 99.585938 66.210938 99.890625 66.515625 C 100.195312 66.820312 100.527344 67.09375 100.886719 67.332031 C 101.242188 67.570312 101.621094 67.773438 102.019531 67.9375 C 102.417969 68.101562 102.828125 68.226562 103.25 68.3125 C 103.671875 68.394531 104.101562 68.4375 104.53125 68.4375 M 45.46875 88.125 C 45.898438 88.125 46.328125 88.082031 46.75 88 C 47.171875 87.914062 47.582031 87.789062 47.980469 87.625 C 48.378906 87.460938 48.757812 87.257812 49.113281 87.019531 C 49.472656 86.78125 49.804688 86.507812 50.109375 86.203125 C 50.414062 85.898438 50.6875 85.566406 50.925781 85.207031 C 51.164062 84.851562 51.367188 84.472656 51.53125 84.074219 C 51.695312 83.675781 51.820312 83.265625 51.90625 82.84375 C 51.988281 82.421875 52.03125 81.992188 52.03125 81.5625 C 52.03125 81.132812 51.988281 80.703125 51.90625 80.28125 C 51.820312 79.859375 51.695312 79.449219 51.53125 79.050781 C 51.367188 78.652344 51.164062 78.273438 50.925781 77.917969 C 50.6875 77.558594 50.414062 77.226562 50.109375 76.921875 C 49.804688 76.617188 49.472656 76.34375 49.113281 76.105469 C 48.757812 75.867188 48.378906 75.664062 47.980469 75.5 C 47.582031 75.335938 47.171875 75.210938 46.75 75.125 C 46.328125 75.042969 45.898438 75 45.46875 75 C 45.039062 75 44.609375 75.042969 44.1875 75.125 C 43.765625 75.210938 43.355469 75.335938 42.957031 75.5 C 42.558594 75.664062 42.179688 75.867188 41.824219 76.105469 C 41.464844 76.34375 41.132812 76.617188 40.828125 76.921875 C 40.523438 77.226562 40.25 77.558594 40.011719 77.917969 C 39.773438 78.273438 39.570312 78.652344 39.40625 79.050781 C 39.242188 79.449219 39.117188 79.859375 39.03125 80.28125 C 38.949219 80.703125 38.90625 81.132812 38.90625 81.5625 C 38.90625 81.992188 38.949219 82.421875 39.03125 82.84375 C 39.117188 83.265625 39.242188 83.675781 39.40625 84.074219 C 39.570312 84.472656 39.773438 84.851562 40.011719 85.207031 C 40.25 85.566406 40.523438 85.898438 40.828125 86.203125 C 41.132812 86.507812 41.464844 86.78125 41.824219 87.019531 C 42.179688 87.257812 42.558594 87.460938 42.957031 87.625 C 43.355469 87.789062 43.765625 87.914062 44.1875 88 C 44.609375 88.082031 45.039062 88.125 45.46875 88.125 M 65.15625 88.125 C 65.585938 88.125 66.015625 88.082031 66.4375 88 C 66.859375 87.914062 67.269531 87.789062 67.667969 87.625 C 68.066406 87.460938 68.445312 87.257812 68.800781 87.019531 C 69.160156 86.78125 69.492188 86.507812 69.796875 86.203125 C 70.101562 85.898438 70.375 85.566406 70.613281 85.207031 C 70.851562 84.851562 71.054688 84.472656 71.21875 84.074219 C 71.382812 83.675781 71.507812 83.265625 71.59375 82.84375 C 71.675781 82.421875 71.71875 81.992188 71.71875 81.5625 C 71.71875 81.132812 71.675781 80.703125 71.59375 80.28125 C 71.507812 79.859375 71.382812 79.449219 71.21875 79.050781 C 71.054688 78.652344 70.851562 78.273438 70.613281 77.917969 C 70.375 77.558594 70.101562 77.226562 69.796875 76.921875 C 69.492188 76.617188 69.160156 76.34375 68.800781 76.105469 C 68.445312 75.867188 68.066406 75.664062 67.667969 75.5 C 67.269531 75.335938 66.859375 75.210938 66.4375 75.125 C 66.015625 75.042969 65.585938 75 65.15625 75 C 64.726562 75 64.296875 75.042969 63.875 75.125 C 63.453125 75.210938 63.042969 75.335938 62.644531 75.5 C 62.246094 75.664062 61.867188 75.867188 61.511719 76.105469 C 61.152344 76.34375 60.820312 76.617188 60.515625 76.921875 C 60.210938 77.226562 59.9375 77.558594 59.699219 77.917969 C 59.460938 78.273438 59.257812 78.652344 59.09375 79.050781 C 58.929688 79.449219 58.804688 79.859375 58.71875 80.28125 C 58.636719 80.703125 58.59375 81.132812 58.59375 81.5625 C 58.59375 81.992188 58.636719 82.421875 58.71875 82.84375 C 58.804688 83.265625 58.929688 83.675781 59.09375 84.074219 C 59.257812 84.472656 59.460938 84.851562 59.699219 85.207031 C 59.9375 85.566406 60.210938 85.898438 60.515625 86.203125 C 60.820312 86.507812 61.152344 86.78125 61.511719 87.019531 C 61.867188 87.257812 62.246094 87.460938 62.644531 87.625 C 63.042969 87.789062 63.453125 87.914062 63.875 88 C 64.296875 88.082031 64.726562 88.125 65.15625 88.125 M 84.84375 88.125 C 85.273438 88.125 85.703125 88.082031 86.125 88 C 86.546875 87.914062 86.957031 87.789062 87.355469 87.625 C 87.753906 87.460938 88.132812 87.257812 88.488281 87.019531 C 88.847656 86.78125 89.179688 86.507812 89.484375 86.203125 C 89.789062 85.898438 90.0625 85.566406 90.300781 85.207031 C 90.539062 84.851562 90.742188 84.472656 90.90625 84.074219 C 91.070312 83.675781 91.195312 83.265625 91.28125 82.84375 C 91.363281 82.421875 91.40625 81.992188 91.40625 81.5625 C 91.40625 81.132812 91.363281 80.703125 91.28125 80.28125 C 91.195312 79.859375 91.070312 79.449219 90.90625 79.050781 C 90.742188 78.652344 90.539062 78.273438 90.300781 77.917969 C 90.0625 77.558594 89.789062 77.226562 89.484375 76.921875 C 89.179688 76.617188 88.847656 76.34375 88.488281 76.105469 C 88.132812 75.867188 87.753906 75.664062 87.355469 75.5 C 86.957031 75.335938 86.546875 75.210938 86.125 75.125 C 85.703125 75.042969 85.273438 75 84.84375 75 C 84.414062 75 83.984375 75.042969 83.5625 75.125 C 83.140625 75.210938 82.730469 75.335938 82.332031 75.5 C 81.933594 75.664062 81.554688 75.867188 81.199219 76.105469 C 80.839844 76.34375 80.507812 76.617188 80.203125 76.921875 C 79.898438 77.226562 79.625 77.558594 79.386719 77.917969 C 79.148438 78.273438 78.945312 78.652344 78.78125 79.050781 C 78.617188 79.449219 78.492188 79.859375 78.40625 80.28125 C 78.324219 80.703125 78.28125 81.132812 78.28125 81.5625 C 78.28125 81.992188 78.324219 82.421875 78.40625 82.84375 C 78.492188 83.265625 78.617188 83.675781 78.78125 84.074219 C 78.945312 84.472656 79.148438 84.851562 79.386719 85.207031 C 79.625 85.566406 79.898438 85.898438 80.203125 86.203125 C 80.507812 86.507812 80.839844 86.78125 81.199219 87.019531 C 81.554688 87.257812 81.933594 87.460938 82.332031 87.625 C 82.730469 87.789062 83.140625 87.914062 83.5625 88 C 83.984375 88.082031 84.414062 88.125 84.84375 88.125 M 104.53125 88.125 C 104.960938 88.125 105.390625 88.082031 105.8125 88 C 106.234375 87.914062 106.644531 87.789062 107.042969 87.625 C 107.441406 87.460938 107.820312 87.257812 108.175781 87.019531 C 108.535156 86.78125 108.867188 86.507812 109.171875 86.203125 C 109.476562 85.898438 109.75 85.566406 109.988281 85.207031 C 110.226562 84.851562 110.429688 84.472656 110.59375 84.074219 C 110.757812 83.675781 110.882812 83.265625 110.96875 82.84375 C 111.050781 82.421875 111.09375 81.992188 111.09375 81.5625 C 111.09375 81.132812 111.050781 80.703125 110.96875 80.28125 C 110.882812 79.859375 110.757812 79.449219 110.59375 79.050781 C 110.429688 78.652344 110.226562 78.273438 109.988281 77.917969 C 109.75 77.558594 109.476562 77.226562 109.171875 76.921875 C 108.867188 76.617188 108.535156 76.34375 108.175781 76.105469 C 107.820312 75.867188 107.441406 75.664062 107.042969 75.5 C 106.644531 75.335938 106.234375 75.210938 105.8125 75.125 C 105.390625 75.042969 104.960938 75 104.53125 75 C 104.101562 75 103.671875 75.042969 103.25 75.125 C 102.828125 75.210938 102.417969 75.335938 102.019531 75.5 C 101.621094 75.664062 101.242188 75.867188 100.886719 76.105469 C 100.527344 76.34375 100.195312 76.617188 99.890625 76.921875 C 99.585938 77.226562 99.3125 77.558594 99.074219 77.917969 C 98.835938 78.273438 98.632812 78.652344 98.46875 79.050781 C 98.304688 79.449219 98.179688 79.859375 98.09375 80.28125 C 98.011719 80.703125 97.96875 81.132812 97.96875 81.5625 C 97.96875 81.992188 98.011719 82.421875 98.09375 82.84375 C 98.179688 83.265625 98.304688 83.675781 98.46875 84.074219 C 98.632812 84.472656 98.835938 84.851562 99.074219 85.207031 C 99.3125 85.566406 99.585938 85.898438 99.890625 86.203125 C 100.195312 86.507812 100.527344 86.78125 100.886719 87.019531 C 101.242188 87.257812 101.621094 87.460938 102.019531 87.625 C 102.417969 87.789062 102.828125 87.914062 103.25 88 C 103.671875 88.082031 104.101562 88.125 104.53125 88.125 M 45.46875 107.8125 C 45.898438 107.8125 46.328125 107.769531 46.75 107.6875 C 47.171875 107.601562 47.582031 107.476562 47.980469 107.3125 C 48.378906 107.148438 48.757812 106.945312 49.113281 106.707031 C 49.472656 106.46875 49.804688 106.195312 50.109375 105.890625 C 50.414062 105.585938 50.6875 105.253906 50.925781 104.894531 C 51.164062 104.539062 51.367188 104.160156 51.53125 103.761719 C 51.695312 103.363281 51.820312 102.953125 51.90625 102.53125 C 51.988281 102.109375 52.03125 101.679688 52.03125 101.25 C 52.03125 100.820312 51.988281 100.390625 51.90625 99.96875 C 51.820312 99.546875 51.695312 99.136719 51.53125 98.738281 C 51.367188 98.339844 51.164062 97.960938 50.925781 97.605469 C 50.6875 97.246094 50.414062 96.914062 50.109375 96.609375 C 49.804688 96.304688 49.472656 96.03125 49.113281 95.792969 C 48.757812 95.554688 48.378906 95.351562 47.980469 95.1875 C 47.582031 95.023438 47.171875 94.898438 46.75 94.8125 C 46.328125 94.730469 45.898438 94.6875 45.46875 94.6875 C 45.039062 94.6875 44.609375 94.730469 44.1875 94.8125 C 43.765625 94.898438 43.355469 95.023438 42.957031 95.1875 C 42.558594 95.351562 42.179688 95.554688 41.824219 95.792969 C 41.464844 96.03125 41.132812 96.304688 40.828125 96.609375 C 40.523438 96.914062 40.25 97.246094 40.011719 97.605469 C 39.773438 97.960938 39.570312 98.339844 39.40625 98.738281 C 39.242188 99.136719 39.117188 99.546875 39.03125 99.96875 C 38.949219 100.390625 38.90625 100.820312 38.90625 101.25 C 38.90625 101.679688 38.949219 102.109375 39.03125 102.53125 C 39.117188 102.953125 39.242188 103.363281 39.40625 103.761719 C 39.570312 104.160156 39.773438 104.539062 40.011719 104.894531 C 40.25 105.253906 40.523438 105.585938 40.828125 105.890625 C 41.132812 106.195312 41.464844 106.46875 41.824219 106.707031 C 42.179688 106.945312 42.558594 107.148438 42.957031 107.3125 C 43.355469 107.476562 43.765625 107.601562 44.1875 107.6875 C 44.609375 107.769531 45.039062 107.8125 45.46875 107.8125 M 65.15625 107.8125 C 65.585938 107.8125 66.015625 107.769531 66.4375 107.6875 C 66.859375 107.601562 67.269531 107.476562 67.667969 107.3125 C 68.066406 107.148438 68.445312 106.945312 68.800781 106.707031 C 69.160156 106.46875 69.492188 106.195312 69.796875 105.890625 C 70.101562 105.585938 70.375 105.253906 70.613281 104.894531 C 70.851562 104.539062 71.054688 104.160156 71.21875 103.761719 C 71.382812 103.363281 71.507812 102.953125 71.59375 102.53125 C 71.675781 102.109375 71.71875 101.679688 71.71875 101.25 C 71.71875 100.820312 71.675781 100.390625 71.59375 99.96875 C 71.507812 99.546875 71.382812 99.136719 71.21875 98.738281 C 71.054688 98.339844 70.851562 97.960938 70.613281 97.605469 C 70.375 97.246094 70.101562 96.914062 69.796875 96.609375 C 69.492188 96.304688 69.160156 96.03125 68.800781 95.792969 C 68.445312 95.554688 68.066406 95.351562 67.667969 95.1875 C 67.269531 95.023438 66.859375 94.898438 66.4375 94.8125 C 66.015625 94.730469 65.585938 94.6875 65.15625 94.6875 C 64.726562 94.6875 64.296875 94.730469 63.875 94.8125 C 63.453125 94.898438 63.042969 95.023438 62.644531 95.1875 C 62.246094 95.351562 61.867188 95.554688 61.511719 95.792969 C 61.152344 96.03125 60.820312 96.304688 60.515625 96.609375 C 60.210938 96.914062 59.9375 97.246094 59.699219 97.605469 C 59.460938 97.960938 59.257812 98.339844 59.09375 98.738281 C 58.929688 99.136719 58.804688 99.546875 58.71875 99.96875 C 58.636719 100.390625 58.59375 100.820312 58.59375 101.25 C 58.59375 101.679688 58.636719 102.109375 58.71875 102.53125 C 58.804688 102.953125 58.929688 103.363281 59.09375 103.761719 C 59.257812 104.160156 59.460938 104.539062 59.699219 104.894531 C 59.9375 105.253906 60.210938 105.585938 60.515625 105.890625 C 60.820312 106.195312 61.152344 106.46875 61.511719 106.707031 C 61.867188 106.945312 62.246094 107.148438 62.644531 107.3125 C 63.042969 107.476562 63.453125 107.601562 63.875 107.6875 C 64.296875 107.769531 64.726562 107.8125 65.15625 107.8125 M 84.84375 107.8125 C 85.273438 107.8125 85.703125 107.769531 86.125 107.6875 C 86.546875 107.601562 86.957031 107.476562 87.355469 107.3125 C 87.753906 107.148438 88.132812 106.945312 88.488281 106.707031 C 88.847656 106.46875 89.179688 106.195312 89.484375 105.890625 C 89.789062 105.585938 90.0625 105.253906 90.300781 104.894531 C 90.539062 104.539062 90.742188 104.160156 90.90625 103.761719 C 91.070312 103.363281 91.195312 102.953125 91.28125 102.53125 C 91.363281 102.109375 91.40625 101.679688 91.40625 101.25 C 91.40625 100.820312 91.363281 100.390625 91.28125 99.96875 C 91.195312 99.546875 91.070312 99.136719 90.90625 98.738281 C 90.742188 98.339844 90.539062 97.960938 90.300781 97.605469 C 90.0625 97.246094 89.789062 96.914062 89.484375 96.609375 C 89.179688 96.304688 88.847656 96.03125 88.488281 95.792969 C 88.132812 95.554688 87.753906 95.351562 87.355469 95.1875 C 86.957031 95.023438 86.546875 94.898438 86.125 94.8125 C 85.703125 94.730469 85.273438 94.6875 84.84375 94.6875 C 84.414062 94.6875 83.984375 94.730469 83.5625 94.8125 C 83.140625 94.898438 82.730469 95.023438 82.332031 95.1875 C 81.933594 95.351562 81.554688 95.554688 81.199219 95.792969 C 80.839844 96.03125 80.507812 96.304688 80.203125 96.609375 C 79.898438 96.914062 79.625 97.246094 79.386719 97.605469 C 79.148438 97.960938 78.945312 98.339844 78.78125 98.738281 C 78.617188 99.136719 78.492188 99.546875 78.40625 99.96875 C 78.324219 100.390625 78.28125 100.820312 78.28125 101.25 C 78.28125 101.679688 78.324219 102.109375 78.40625 102.53125 C 78.492188 102.953125 78.617188 103.363281 78.78125 103.761719 C 78.945312 104.160156 79.148438 104.539062 79.386719 104.894531 C 79.625 105.253906 79.898438 105.585938 80.203125 105.890625 C 80.507812 106.195312 80.839844 106.46875 81.199219 106.707031 C 81.554688 106.945312 81.933594 107.148438 82.332031 107.3125 C 82.730469 107.476562 83.140625 107.601562 83.5625 107.6875 C 83.984375 107.769531 84.414062 107.8125 84.84375 107.8125 " fill-opacity="1" fill-rule="nonzero"/></svg>