<svg xmlns="http://www.w3.org/2000/svg" xmlns:xlink="http://www.w3.org/1999/xlink" width="200" zoomAndPan="magnify" viewBox="0 0 150 149.999998" height="200" preserveAspectRatio="xMidYMid meet" version="1.0"><defs><clipPath id="d0158563e0"><path d="M 29 32 L 121 32 L 121 127.5 L 29 127.5 Z M 29 32 " clip-rule="nonzero"/></clipPath><clipPath id="aae68ad4e8"><path d="M 55 22.5 L 95 22.5 L 95 49 L 55 49 Z M 55 22.5 " clip-rule="nonzero"/></clipPath></defs><path fill="#000000" d="M 48.75 94.6875 C 48.75 94.257812 48.792969 93.828125 48.875 93.40625 C 48.960938 92.984375 49.085938 92.574219 49.25 92.175781 C 49.414062 91.777344 49.617188 91.398438 49.855469 91.042969 C 50.09375 90.683594 50.367188 90.351562 50.671875 90.046875 C 50.976562 89.742188 51.308594 89.46875 51.667969 89.230469 C 52.023438 88.992188 52.402344 88.789062 52.800781 88.625 C 53.199219 88.460938 53.609375 88.335938 54.03125 88.25 C 54.453125 88.167969 54.882812 88.125 55.3125 88.125 C 55.742188 88.125 56.171875 88.167969 56.59375 88.25 C 57.015625 88.335938 57.425781 88.460938 57.824219 88.625 C 58.222656 88.789062 58.601562 88.992188 58.957031 89.230469 C 59.316406 89.46875 59.648438 89.742188 59.953125 90.046875 C 60.257812 90.351562 60.53125 90.683594 60.769531 91.042969 C 61.007812 91.398438 61.210938 91.777344 61.375 92.175781 C 61.539062 92.574219 61.664062 92.984375 61.75 93.40625 C 61.832031 93.828125 61.875 94.257812 61.875 94.6875 L 61.875 101.25 C 61.875 101.679688 61.832031 102.109375 61.75 102.53125 C 61.664062 102.953125 61.539062 103.363281 61.375 103.761719 C 61.210938 104.160156 61.007812 104.539062 60.769531 104.894531 C 60.53125 105.253906 60.257812 105.585938 59.953125 105.890625 C 59.648438 106.195312 59.316406 106.46875 58.957031 106.707031 C 58.601562 106.945312 58.222656 107.148438 57.824219 107.3125 C 57.425781 107.476562 57.015625 107.601562 56.59375 107.6875 C 56.171875 107.769531 55.742188 107.8125 55.3125 107.8125 C 54.882812 107.8125 54.453125 107.769531 54.03125 107.6875 C 53.609375 107.601562 53.199219 107.476562 52.800781 107.3125 C 52.402344 107.148438 52.023438 106.945312 51.667969 106.707031 C 51.308594 106.46875 50.976562 106.195312 50.671875 105.890625 C 50.367188 105.585938 50.09375 105.253906 49.855469 104.894531 C 49.617188 104.539062 49.414062 104.160156 49.25 103.761719 C 49.085938 103.363281 48.960938 102.953125 48.875 102.53125 C 48.792969 102.109375 48.75 101.679688 48.75 101.25 Z M 88.125 68.4375 C 88.125 68.007812 88.167969 67.578125 88.25 67.15625 C 88.335938 66.734375 88.460938 66.324219 88.625 65.925781 C 88.789062 65.527344 88.992188 65.148438 89.230469 64.792969 C 89.46875 64.433594 89.742188 64.101562 90.046875 63.796875 C 90.351562 63.492188 90.683594 63.21875 91.042969 62.980469 C 91.398438 62.742188 91.777344 62.539062 92.175781 62.375 C 92.574219 62.210938 92.984375 62.085938 93.40625 62 C 93.828125 61.917969 94.257812 61.875 94.6875 61.875 C 95.117188 61.875 95.546875 61.917969 95.96875 62 C 96.390625 62.085938 96.800781 62.210938 97.199219 62.375 C 97.597656 62.539062 97.976562 62.742188 98.332031 62.980469 C 98.691406 63.21875 99.023438 63.492188 99.328125 63.796875 C 99.632812 64.101562 99.90625 64.433594 100.144531 64.792969 C 100.382812 65.148438 100.585938 65.527344 100.75 65.925781 C 100.914062 66.324219 101.039062 66.734375 101.125 67.15625 C 101.207031 67.578125 101.25 68.007812 101.25 68.4375 L 101.25 101.25 C 101.25 101.679688 101.207031 102.109375 101.125 102.53125 C 101.039062 102.953125 100.914062 103.363281 100.75 103.761719 C 100.585938 104.160156 100.382812 104.539062 100.144531 104.894531 C 99.90625 105.253906 99.632812 105.585938 99.328125 105.890625 C 99.023438 106.195312 98.691406 106.46875 98.332031 106.707031 C 97.976562 106.945312 97.597656 107.148438 97.199219 107.3125 C 96.800781 107.476562 96.390625 107.601562 95.96875 107.6875 C 95.546875 107.769531 95.117188 107.8125 94.6875 107.8125 C 94.257812 107.8125 93.828125 107.769531 93.40625 107.6875 C 92.984375 107.601562 92.574219 107.476562 92.175781 107.3125 C 91.777344 107.148438 91.398438 106.945312 91.042969 106.707031 C 90.683594 106.46875 90.351562 106.195312 90.046875 105.890625 C 89.742188 105.585938 89.46875 105.253906 89.230469 104.894531 C 88.992188 104.539062 88.789062 104.160156 88.625 103.761719 C 88.460938 103.363281 88.335938 102.953125 88.25 102.53125 C 88.167969 102.109375 88.125 101.679688 88.125 101.25 Z M 68.4375 81.5625 C 68.4375 81.132812 68.480469 80.703125 68.5625 80.28125 C 68.648438 79.859375 68.773438 79.449219 68.9375 79.050781 C 69.101562 78.652344 69.304688 78.273438 69.542969 77.917969 C 69.78125 77.558594 70.054688 77.226562 70.359375 76.921875 C 70.664062 76.617188 70.996094 76.34375 71.355469 76.105469 C 71.710938 75.867188 72.089844 75.664062 72.488281 75.5 C 72.886719 75.335938 73.296875 75.210938 73.71875 75.125 C 74.140625 75.042969 74.570312 75 75 75 C 75.429688 75 75.859375 75.042969 76.28125 75.125 C 76.703125 75.210938 77.113281 75.335938 77.511719 75.5 C 77.910156 75.664062 78.289062 75.867188 78.644531 76.105469 C 79.003906 76.34375 79.335938 76.617188 79.640625 76.921875 C 79.945312 77.226562 80.21875 77.558594 80.457031 77.917969 C 80.695312 78.273438 80.898438 78.652344 81.0625 79.050781 C 81.226562 79.449219 81.351562 79.859375 81.4375 80.28125 C 81.519531 80.703125 81.5625 81.132812 81.5625 81.5625 L 81.5625 101.25 C 81.5625 101.679688 81.519531 102.109375 81.4375 102.53125 C 81.351562 102.953125 81.226562 103.363281 81.0625 103.761719 C 80.898438 104.160156 80.695312 104.539062 80.457031 104.894531 C 80.21875 105.253906 79.945312 105.585938 79.640625 105.890625 C 79.335938 106.195312 79.003906 106.46875 78.644531 106.707031 C 78.289062 106.945312 77.910156 107.148438 77.511719 107.3125 C 77.113281 107.476562 76.703125 107.601562 76.28125 107.6875 C 75.859375 107.769531 75.429688 107.8125 75 107.8125 C 74.570312 107.8125 74.140625 107.769531 73.71875 107.6875 C 73.296875 107.601562 72.886719 107.476562 72.488281 107.3125 C 72.089844 107.148438 71.710938 106.945312 71.355469 106.707031 C 70.996094 106.46875 70.664062 106.195312 70.359375 105.890625 C 70.054688 105.585938 69.78125 105.253906 69.542969 104.894531 C 69.304688 104.539062 69.101562 104.160156 68.9375 103.761719 C 68.773438 103.363281 68.648438 102.953125 68.5625 102.53125 C 68.480469 102.109375 68.4375 101.679688 68.4375 101.25 Z M 68.4375 81.5625 " fill-opacity="1" fill-rule="nonzero"/><g clip-path="url(#d0158563e0)"><path fill="#000000" d="M 48.75 32.34375 L 42.1875 32.34375 C 41.324219 32.34375 40.472656 32.429688 39.625 32.597656 C 38.78125 32.765625 37.960938 33.011719 37.164062 33.34375 C 36.367188 33.671875 35.613281 34.078125 34.894531 34.554688 C 34.179688 35.035156 33.515625 35.578125 32.90625 36.1875 C 32.296875 36.796875 31.753906 37.460938 31.273438 38.175781 C 30.796875 38.894531 30.390625 39.648438 30.0625 40.445312 C 29.730469 41.242188 29.484375 42.0625 29.316406 42.90625 C 29.148438 43.753906 29.0625 44.605469 29.0625 45.46875 L 29.0625 114.375 C 29.0625 115.238281 29.148438 116.089844 29.316406 116.9375 C 29.484375 117.78125 29.730469 118.601562 30.0625 119.398438 C 30.390625 120.195312 30.796875 120.949219 31.273438 121.667969 C 31.753906 122.382812 32.296875 123.046875 32.90625 123.65625 C 33.515625 124.265625 34.179688 124.808594 34.894531 125.289062 C 35.613281 125.765625 36.367188 126.171875 37.164062 126.5 C 37.960938 126.832031 38.78125 127.078125 39.625 127.246094 C 40.472656 127.414062 41.324219 127.5 42.1875 127.5 L 107.8125 127.5 C 108.675781 127.5 109.527344 127.414062 110.375 127.246094 C 111.21875 127.078125 112.039062 126.832031 112.835938 126.5 C 113.632812 126.171875 114.386719 125.765625 115.105469 125.289062 C 115.820312 124.808594 116.484375 124.265625 117.09375 123.65625 C 117.703125 123.046875 118.246094 122.382812 118.726562 121.667969 C 119.203125 120.949219 119.609375 120.195312 119.9375 119.398438 C 120.269531 118.601562 120.515625 117.78125 120.683594 116.9375 C 120.851562 116.089844 120.9375 115.238281 120.9375 114.375 L 120.9375 45.46875 C 120.9375 44.605469 120.851562 43.753906 120.683594 42.90625 C 120.515625 42.0625 120.269531 41.242188 119.9375 40.445312 C 119.609375 39.648438 119.203125 38.894531 118.726562 38.175781 C 118.246094 37.460938 117.703125 36.796875 117.09375 36.1875 C 116.484375 35.578125 115.820312 35.035156 115.105469 34.554688 C 114.386719 34.078125 113.632812 33.671875 112.835938 33.34375 C 112.039062 33.011719 111.21875 32.765625 110.375 32.597656 C 109.527344 32.429688 108.675781 32.34375 107.8125 32.34375 L 101.25 32.34375 L 101.25 38.90625 L 107.8125 38.90625 C 108.242188 38.90625 108.671875 38.949219 109.09375 39.03125 C 109.515625 39.117188 109.925781 39.242188 110.324219 39.40625 C 110.722656 39.570312 111.101562 39.773438 111.457031 40.011719 C 111.816406 40.25 112.148438 40.523438 112.453125 40.828125 C 112.757812 41.132812 113.03125 41.464844 113.269531 41.824219 C 113.507812 42.179688 113.710938 42.558594 113.875 42.957031 C 114.039062 43.355469 114.164062 43.765625 114.25 44.1875 C 114.332031 44.609375 114.375 45.039062 114.375 45.46875 L 114.375 114.375 C 114.375 114.804688 114.332031 115.234375 114.25 115.65625 C 114.164062 116.078125 114.039062 116.488281 113.875 116.886719 C 113.710938 117.285156 113.507812 117.664062 113.269531 118.019531 C 113.03125 118.378906 112.757812 118.710938 112.453125 119.015625 C 112.148438 119.320312 111.816406 119.59375 111.457031 119.832031 C 111.101562 120.070312 110.722656 120.273438 110.324219 120.4375 C 109.925781 120.601562 109.515625 120.726562 109.09375 120.8125 C 108.671875 120.894531 108.242188 120.9375 107.8125 120.9375 L 42.1875 120.9375 C 41.757812 120.9375 41.328125 120.894531 40.90625 120.8125 C 40.484375 120.726562 40.074219 120.601562 39.675781 120.4375 C 39.277344 120.273438 38.898438 120.070312 38.542969 119.832031 C 38.183594 119.59375 37.851562 119.320312 37.546875 119.015625 C 37.242188 118.710938 36.96875 118.378906 36.730469 118.019531 C 36.492188 117.664062 36.289062 117.285156 36.125 116.886719 C 35.960938 116.488281 35.835938 116.078125 35.75 115.65625 C 35.667969 115.234375 35.625 114.804688 35.625 114.375 L 35.625 45.46875 C 35.625 45.039062 35.667969 44.609375 35.75 44.1875 C 35.835938 43.765625 35.960938 43.355469 36.125 42.957031 C 36.289062 42.558594 36.492188 42.179688 36.730469 41.824219 C 36.96875 41.464844 37.242188 41.132812 37.546875 40.828125 C 37.851562 40.523438 38.183594 40.25 38.542969 40.011719 C 38.898438 39.773438 39.277344 39.570312 39.675781 39.40625 C 40.074219 39.242188 40.484375 39.117188 40.90625 39.03125 C 41.328125 38.949219 41.757812 38.90625 42.1875 38.90625 L 48.75 38.90625 Z M 48.75 32.34375 " fill-opacity="1" fill-rule="nonzero"/></g><g clip-path="url(#aae68ad4e8)"><path fill="#000000" d="M 84.84375 29.0625 C 85.277344 29.0625 85.699219 29.144531 86.097656 29.3125 C 86.5 29.480469 86.855469 29.714844 87.164062 30.023438 C 87.472656 30.332031 87.707031 30.6875 87.875 31.089844 C 88.042969 31.488281 88.125 31.910156 88.125 32.34375 L 88.125 38.90625 C 88.125 39.339844 88.042969 39.761719 87.875 40.160156 C 87.707031 40.5625 87.472656 40.917969 87.164062 41.226562 C 86.855469 41.535156 86.5 41.769531 86.097656 41.9375 C 85.699219 42.105469 85.277344 42.1875 84.84375 42.1875 L 65.15625 42.1875 C 64.722656 42.1875 64.300781 42.105469 63.902344 41.9375 C 63.5 41.769531 63.144531 41.535156 62.835938 41.226562 C 62.527344 40.917969 62.292969 40.5625 62.125 40.160156 C 61.957031 39.761719 61.875 39.339844 61.875 38.90625 L 61.875 32.34375 C 61.875 31.910156 61.957031 31.488281 62.125 31.089844 C 62.292969 30.6875 62.527344 30.332031 62.835938 30.023438 C 63.144531 29.714844 63.5 29.480469 63.902344 29.3125 C 64.300781 29.144531 64.722656 29.0625 65.15625 29.0625 Z M 65.15625 22.5 C 64.511719 22.5 63.871094 22.5625 63.234375 22.6875 C 62.601562 22.816406 61.988281 23.003906 61.390625 23.25 C 60.792969 23.496094 60.226562 23.800781 59.6875 24.160156 C 59.148438 24.519531 58.652344 24.925781 58.195312 25.382812 C 57.738281 25.839844 57.332031 26.335938 56.972656 26.875 C 56.613281 27.414062 56.308594 27.980469 56.0625 28.578125 C 55.816406 29.175781 55.628906 29.789062 55.5 30.421875 C 55.375 31.058594 55.3125 31.699219 55.3125 32.34375 L 55.3125 38.90625 C 55.3125 39.550781 55.375 40.191406 55.5 40.828125 C 55.628906 41.460938 55.816406 42.074219 56.0625 42.671875 C 56.308594 43.269531 56.613281 43.835938 56.972656 44.375 C 57.332031 44.914062 57.738281 45.410156 58.195312 45.867188 C 58.652344 46.324219 59.148438 46.730469 59.6875 47.089844 C 60.226562 47.449219 60.792969 47.753906 61.390625 48 C 61.988281 48.246094 62.601562 48.433594 63.234375 48.5625 C 63.871094 48.6875 64.511719 48.75 65.15625 48.75 L 84.84375 48.75 C 85.488281 48.75 86.128906 48.6875 86.765625 48.5625 C 87.398438 48.433594 88.011719 48.246094 88.609375 48 C 89.207031 47.753906 89.773438 47.449219 90.3125 47.089844 C 90.851562 46.730469 91.347656 46.324219 91.804688 45.867188 C 92.261719 45.410156 92.667969 44.914062 93.027344 44.375 C 93.386719 43.835938 93.691406 43.269531 93.9375 42.671875 C 94.183594 42.074219 94.371094 41.460938 94.5 40.828125 C 94.625 40.191406 94.6875 39.550781 94.6875 38.90625 L 94.6875 32.34375 C 94.6875 31.699219 94.625 31.058594 94.5 30.421875 C 94.371094 29.789062 94.183594 29.175781 93.9375 28.578125 C 93.691406 27.980469 93.386719 27.414062 93.027344 26.875 C 92.667969 26.335938 92.261719 25.839844 91.804688 25.382812 C 91.347656 24.925781 90.851562 24.519531 90.3125 24.160156 C 89.773438 23.800781 89.207031 23.496094 88.609375 23.25 C 88.011719 23.003906 87.398438 22.816406 86.765625 22.6875 C 86.128906 22.5625 85.488281 22.5 84.84375 22.5 Z M 65.15625 22.5 " fill-opacity="1" fill-rule="nonzero"/></g></svg>