<svg xmlns="http://www.w3.org/2000/svg" xmlns:xlink="http://www.w3.org/1999/xlink" width="200" zoomAndPan="magnify" viewBox="0 0 150 149.999998" height="200" preserveAspectRatio="xMidYMid meet" version="1.0"><defs><clipPath id="b98b360fa7"><path d="M 22.5 22.5 L 127.5 22.5 L 127.5 127.5 L 22.5 127.5 Z M 22.5 22.5 " clip-rule="nonzero"/></clipPath></defs><path fill="#000000" d="M 75 45.46875 C 75 45.035156 74.917969 44.613281 74.75 44.214844 C 74.582031 43.8125 74.347656 43.457031 74.039062 43.148438 C 73.730469 42.839844 73.375 42.605469 72.972656 42.4375 C 72.574219 42.269531 72.152344 42.1875 71.71875 42.1875 C 71.285156 42.1875 70.863281 42.269531 70.464844 42.4375 C 70.0625 42.605469 69.707031 42.839844 69.398438 43.148438 C 69.089844 43.457031 68.855469 43.8125 68.6875 44.214844 C 68.519531 44.613281 68.4375 45.035156 68.4375 45.46875 L 68.4375 81.5625 C 68.4375 82.152344 68.585938 82.699219 68.882812 83.210938 C 69.175781 83.71875 69.582031 84.117188 70.089844 84.410156 L 93.058594 97.535156 C 93.4375 97.738281 93.839844 97.863281 94.265625 97.910156 C 94.691406 97.957031 95.109375 97.921875 95.519531 97.804688 C 95.933594 97.6875 96.308594 97.496094 96.644531 97.230469 C 96.980469 96.96875 97.257812 96.648438 97.46875 96.277344 C 97.679688 95.90625 97.816406 95.507812 97.871094 95.082031 C 97.929688 94.65625 97.902344 94.238281 97.796875 93.824219 C 97.6875 93.410156 97.507812 93.03125 97.25 92.6875 C 96.992188 92.34375 96.683594 92.0625 96.316406 91.839844 L 75 79.660156 Z M 75 45.46875 " fill-opacity="1" fill-rule="nonzero"/><g clip-path="url(#b98b360fa7)"><path fill="#000000" d="M 75 127.5 C 76.71875 127.5 78.433594 127.414062 80.144531 127.246094 C 81.855469 127.078125 83.554688 126.828125 85.242188 126.492188 C 86.929688 126.15625 88.59375 125.738281 90.238281 125.238281 C 91.886719 124.738281 93.503906 124.160156 95.089844 123.503906 C 96.679688 122.84375 98.230469 122.113281 99.75 121.300781 C 101.265625 120.492188 102.738281 119.605469 104.167969 118.652344 C 105.597656 117.695312 106.976562 116.675781 108.304688 115.582031 C 109.636719 114.492188 110.90625 113.339844 112.125 112.125 C 113.339844 110.90625 114.492188 109.636719 115.582031 108.304688 C 116.675781 106.976562 117.695312 105.597656 118.652344 104.167969 C 119.605469 102.738281 120.492188 101.265625 121.300781 99.75 C 122.113281 98.230469 122.84375 96.679688 123.503906 95.089844 C 124.160156 93.503906 124.738281 91.886719 125.238281 90.238281 C 125.738281 88.59375 126.15625 86.929688 126.492188 85.242188 C 126.828125 83.554688 127.078125 81.855469 127.246094 80.144531 C 127.414062 78.433594 127.5 76.71875 127.5 75 C 127.5 73.28125 127.414062 71.566406 127.246094 69.855469 C 127.078125 68.144531 126.828125 66.445312 126.492188 64.757812 C 126.15625 63.070312 125.738281 61.40625 125.238281 59.761719 C 124.738281 58.113281 124.160156 56.496094 123.503906 54.910156 C 122.84375 53.320312 122.113281 51.769531 121.300781 50.25 C 120.492188 48.734375 119.605469 47.261719 118.652344 45.832031 C 117.695312 44.402344 116.675781 43.023438 115.582031 41.695312 C 114.492188 40.363281 113.339844 39.09375 112.125 37.875 C 110.90625 36.660156 109.636719 35.507812 108.304688 34.417969 C 106.976562 33.324219 105.597656 32.304688 104.167969 31.347656 C 102.738281 30.390625 101.265625 29.507812 99.75 28.699219 C 98.230469 27.886719 96.679688 27.15625 95.089844 26.496094 C 93.503906 25.839844 91.886719 25.257812 90.238281 24.761719 C 88.59375 24.261719 86.929688 23.84375 85.242188 23.507812 C 83.554688 23.171875 81.855469 22.921875 80.144531 22.753906 C 78.433594 22.585938 76.71875 22.5 75 22.5 C 73.28125 22.5 71.566406 22.585938 69.855469 22.753906 C 68.144531 22.921875 66.445312 23.171875 64.757812 23.507812 C 63.070312 23.84375 61.40625 24.261719 59.761719 24.761719 C 58.113281 25.257812 56.496094 25.839844 54.910156 26.496094 C 53.320312 27.15625 51.769531 27.886719 50.25 28.699219 C 48.734375 29.507812 47.261719 30.390625 45.832031 31.347656 C 44.402344 32.304688 43.023438 33.324219 41.695312 34.417969 C 40.363281 35.507812 39.09375 36.660156 37.875 37.875 C 36.660156 39.09375 35.507812 40.363281 34.417969 41.695312 C 33.324219 43.023438 32.304688 44.402344 31.347656 45.832031 C 30.390625 47.261719 29.507812 48.734375 28.699219 50.25 C 27.886719 51.769531 27.15625 53.320312 26.496094 54.910156 C 25.839844 56.496094 25.257812 58.113281 24.761719 59.761719 C 24.261719 61.40625 23.84375 63.070312 23.507812 64.757812 C 23.171875 66.445312 22.921875 68.144531 22.753906 69.855469 C 22.585938 71.566406 22.5 73.28125 22.5 75 C 22.5 76.71875 22.585938 78.433594 22.753906 80.144531 C 22.921875 81.855469 23.171875 83.554688 23.507812 85.242188 C 23.84375 86.929688 24.261719 88.59375 24.761719 90.238281 C 25.257812 91.886719 25.839844 93.503906 26.496094 95.089844 C 27.15625 96.679688 27.886719 98.230469 28.699219 99.75 C 29.507812 101.265625 30.390625 102.738281 31.347656 104.167969 C 32.304688 105.597656 33.324219 106.976562 34.417969 108.304688 C 35.507812 109.636719 36.660156 110.90625 37.875 112.125 C 39.09375 113.339844 40.363281 114.492188 41.695312 115.582031 C 43.023438 116.675781 44.402344 117.695312 45.832031 118.652344 C 47.261719 119.605469 48.734375 120.492188 50.25 121.300781 C 51.769531 122.113281 53.320312 122.84375 54.910156 123.503906 C 56.496094 124.160156 58.113281 124.738281 59.761719 125.238281 C 61.40625 125.738281 63.070312 126.15625 64.757812 126.492188 C 66.445312 126.828125 68.144531 127.078125 69.855469 127.246094 C 71.566406 127.414062 73.28125 127.5 75 127.5 M 120.9375 75 C 120.9375 76.503906 120.863281 78.003906 120.714844 79.503906 C 120.570312 81 120.347656 82.488281 120.054688 83.960938 C 119.761719 85.4375 119.394531 86.894531 118.960938 88.335938 C 118.523438 89.773438 118.015625 91.191406 117.441406 92.578125 C 116.863281 93.96875 116.222656 95.328125 115.511719 96.65625 C 114.804688 97.980469 114.03125 99.269531 113.195312 100.523438 C 112.359375 101.773438 111.464844 102.980469 110.511719 104.140625 C 109.554688 105.304688 108.546875 106.417969 107.484375 107.484375 C 106.417969 108.546875 105.304688 109.554688 104.140625 110.511719 C 102.980469 111.464844 101.773438 112.359375 100.523438 113.195312 C 99.269531 114.03125 97.980469 114.804688 96.65625 115.511719 C 95.328125 116.222656 93.96875 116.863281 92.578125 117.441406 C 91.191406 118.015625 89.773438 118.523438 88.335938 118.960938 C 86.894531 119.394531 85.4375 119.761719 83.960938 120.054688 C 82.488281 120.347656 81 120.570312 79.503906 120.714844 C 78.003906 120.863281 76.503906 120.9375 75 120.9375 C 73.496094 120.9375 71.996094 120.863281 70.496094 120.714844 C 69 120.570312 67.511719 120.347656 66.039062 120.054688 C 64.5625 119.761719 63.105469 119.394531 61.664062 118.960938 C 60.226562 118.523438 58.808594 118.015625 57.421875 117.441406 C 56.03125 116.863281 54.671875 116.222656 53.34375 115.511719 C 52.019531 114.804688 50.730469 114.03125 49.476562 113.195312 C 48.226562 112.359375 47.019531 111.464844 45.859375 110.511719 C 44.695312 109.554688 43.582031 108.546875 42.515625 107.484375 C 41.453125 106.417969 40.445312 105.304688 39.488281 104.140625 C 38.535156 102.980469 37.640625 101.773438 36.804688 100.523438 C 35.96875 99.269531 35.195312 97.980469 34.488281 96.65625 C 33.777344 95.328125 33.136719 93.96875 32.558594 92.578125 C 31.984375 91.191406 31.476562 89.773438 31.039062 88.335938 C 30.605469 86.894531 30.238281 85.4375 29.945312 83.960938 C 29.652344 82.488281 29.429688 81 29.285156 79.503906 C 29.136719 78.003906 29.0625 76.503906 29.0625 75 C 29.0625 73.496094 29.136719 71.996094 29.285156 70.496094 C 29.429688 69 29.652344 67.511719 29.945312 66.039062 C 30.238281 64.5625 30.605469 63.105469 31.039062 61.664062 C 31.476562 60.226562 31.984375 58.808594 32.558594 57.421875 C 33.136719 56.03125 33.777344 54.671875 34.488281 53.34375 C 35.195312 52.019531 35.96875 50.730469 36.804688 49.476562 C 37.640625 48.226562 38.535156 47.019531 39.488281 45.859375 C 40.445312 44.695312 41.453125 43.582031 42.515625 42.515625 C 43.582031 41.453125 44.695312 40.445312 45.859375 39.488281 C 47.019531 38.535156 48.226562 37.640625 49.476562 36.804688 C 50.730469 35.96875 52.019531 35.195312 53.34375 34.488281 C 54.671875 33.777344 56.03125 33.136719 57.421875 32.558594 C 58.808594 31.984375 60.226562 31.476562 61.664062 31.039062 C 63.105469 30.605469 64.5625 30.238281 66.039062 29.945312 C 67.511719 29.652344 69 29.429688 70.496094 29.285156 C 71.996094 29.136719 73.496094 29.0625 75 29.0625 C 76.503906 29.0625 78.003906 29.136719 79.503906 29.285156 C 81 29.429688 82.488281 29.652344 83.960938 29.945312 C 85.4375 30.238281 86.894531 30.605469 88.335938 31.039062 C 89.773438 31.476562 91.191406 31.984375 92.578125 32.558594 C 93.96875 33.136719 95.328125 33.777344 96.65625 34.488281 C 97.980469 35.195312 99.269531 35.96875 100.523438 36.804688 C 101.773438 37.640625 102.980469 38.535156 104.140625 39.488281 C 105.304688 40.445312 106.417969 41.453125 107.484375 42.515625 C 108.546875 43.582031 109.554688 44.695312 110.511719 45.859375 C 111.464844 47.019531 112.359375 48.226562 113.195312 49.476562 C 114.03125 50.730469 114.804688 52.019531 115.511719 53.34375 C 116.222656 54.671875 116.863281 56.03125 117.441406 57.421875 C 118.015625 58.808594 118.523438 60.226562 118.960938 61.664062 C 119.394531 63.105469 119.761719 64.5625 120.054688 66.039062 C 120.347656 67.511719 120.570312 69 120.714844 70.496094 C 120.863281 71.996094 120.9375 73.496094 120.9375 75 " fill-opacity="1" fill-rule="nonzero"/></g></svg>